<svg width="636" height="655" viewBox="0 0 636 655" fill="none" xmlns="http://www.w3.org/2000/svg">
<path d="M528.02 447.443C585.595 536.937 635.937 606.668 635.97 606.714C635.945 606.706 583.556 591.414 571.842 581.162C563.118 573.529 536.997 555.464 516.243 536.909C519.102 525.241 521.416 512.303 523.026 497.94C525.044 479.94 526.689 463.071 528.02 447.443Z" fill="white"/>
<path d="M259.293 0.029389C307.626 -0.947122 334.56 22.6109 343.511 40.9207C353.932 62.239 358.057 76.9355 360.162 89.7753L360.044 89.8056L360.426 91.4417C363.169 109.407 362.233 124.066 369.752 148.949C371.935 156.175 374.505 163.739 377.421 171.591C388.864 237.982 401.354 342.59 402.474 462.246C402.146 462.177 401.817 462.111 401.486 462.047C335.577 449.352 276.583 467.744 253.19 487.681L200.707 526.132C194.36 502.696 208.436 480.144 220.235 462.047C239.154 440.686 262.955 429.7 265.396 424.817C208.274 360.367 180.567 279.56 173.854 247.212C157.987 150.78 183.619 146.508 200.707 104.395C217.794 62.283 184.026 45.3975 166.531 40.9217C169.786 34.8185 175.685 25.6627 204.978 25.6627C204.978 9.79389 210.959 1.0059 259.293 0.029389Z" fill="white"/>
<path d="M259.293 0.029389C307.626 -0.947122 334.56 22.6109 343.511 40.9207C353.932 62.239 358.057 76.9355 360.162 89.7753L360.044 89.8056L360.426 91.4417C363.169 109.407 362.233 124.066 369.752 148.949C371.935 156.175 374.505 163.739 377.421 171.591C388.864 237.982 401.354 342.59 402.474 462.246C402.146 462.177 401.817 462.111 401.486 462.047C335.577 449.352 276.583 467.744 253.19 487.681L200.707 526.132C194.36 502.696 208.436 480.144 220.235 462.047C239.154 440.686 262.955 429.7 265.396 424.817C208.274 360.367 180.567 279.56 173.854 247.212C157.987 150.78 183.619 146.508 200.707 104.395C217.794 62.283 184.026 45.3975 166.531 40.9217C169.786 34.8185 175.685 25.6627 204.978 25.6627C204.978 9.79389 210.959 1.0059 259.293 0.029389Z" fill="white"/>
<path d="M621.942 102.75C621.942 134.413 618.101 187.208 613.425 204.409C584.367 140.281 524.246 165.331 488.174 174.894V264.574C549.297 257.515 597.894 246.493 602.403 271.543C606.912 296.593 597.894 326.653 589.377 357.715C556.311 292.585 530.258 329.659 497.192 329.659C498.695 345.858 498.194 404.654 488.174 494.033C478.154 583.411 439.41 600.412 433.064 607.259C449.096 388.822 419.036 188.254 402.002 115.275C467.967 98.4081 621.942 71.0866 621.942 102.75Z" fill="white"/>
<path d="M73.8916 275.606C79.9646 269.533 88.5067 267.753 93.9902 271.418L129.734 295.311C135.65 291.771 141.803 288.587 148.166 285.791C153.15 301.177 159.994 319.237 168.91 338.568C131.367 355.98 105.329 394.003 105.329 438.108C105.329 487.671 138.211 529.552 183.35 543.135L184.313 546.693L189.907 544.887C197.966 546.773 206.366 547.774 215 547.774C252.485 547.774 285.577 528.967 305.356 500.275C309.426 499.04 313.865 497.883 318.666 496.863C334.306 493.542 352.458 491.968 371.892 493.38C368.188 503.891 363.457 513.916 357.821 523.338L381.814 559.229C385.48 564.712 383.7 573.255 377.627 579.327L356.108 600.609C350.035 606.682 341.493 608.462 336.01 604.797L300.264 580.904C286.668 589.039 271.815 595.288 256.064 599.288L247.311 643.352C246.025 649.823 238.725 654.608 230.135 654.608L199.865 654.442C191.275 654.442 183.975 649.658 182.689 643.187L173.97 599.297C158.335 595.33 143.585 589.148 130.071 581.106L92.7041 606.083C87.2206 609.748 78.6776 607.969 72.6045 601.897L51.3203 580.379C45.2476 574.306 43.4685 565.764 47.1338 560.281L72.0127 523.063C63.9126 509.46 57.6997 494.604 53.7324 478.855L11.2559 470.417C4.78399 469.131 -1.12642e-06 461.831 0 453.241L0.165039 422.974C0.16504 414.384 4.94993 407.085 11.4219 405.799L53.7236 397.395C57.7174 381.526 63.9914 366.564 72.1777 352.877L48.1855 316.987C44.5202 311.504 46.3002 302.962 52.373 296.889L73.8916 275.606Z" fill="white"/>
</svg>
