<svg width="1587" height="655" viewBox="0 0 1587 655" fill="none" xmlns="http://www.w3.org/2000/svg">
<path d="M528.02 447.443C585.595 536.937 635.937 606.668 635.97 606.713C635.945 606.706 583.556 591.413 571.842 581.162C563.118 573.529 536.997 555.464 516.243 536.909C519.102 525.241 521.416 512.303 523.026 497.94C525.044 479.94 526.69 463.071 528.02 447.443Z" fill="white"/>
<path d="M259.293 0.029389C307.627 -0.947122 334.561 22.6109 343.511 40.9207C353.933 62.239 358.058 76.9355 360.163 89.7753L360.044 89.8056L360.426 91.4417C363.169 109.407 362.233 124.066 369.752 148.949C371.936 156.175 374.506 163.739 377.421 171.591C388.864 237.982 401.354 342.59 402.474 462.246C402.147 462.177 401.817 462.111 401.487 462.047C335.577 449.352 276.584 467.744 253.19 487.681L200.707 526.132C194.36 502.696 208.437 480.144 220.235 462.047C239.154 440.686 262.955 429.7 265.396 424.817C208.274 360.367 180.568 279.56 173.854 247.212C157.987 150.78 183.619 146.508 200.707 104.395C217.794 62.283 184.026 45.3975 166.531 40.9217C169.786 34.8185 175.685 25.6627 204.978 25.6627C204.978 9.79389 210.96 1.0059 259.293 0.029389Z" fill="white"/>
<path d="M259.293 0.029389C307.627 -0.947122 334.561 22.6109 343.511 40.9207C353.933 62.239 358.058 76.9355 360.163 89.7753L360.044 89.8056L360.426 91.4417C363.169 109.407 362.233 124.066 369.752 148.949C371.936 156.175 374.506 163.739 377.421 171.591C388.864 237.982 401.354 342.59 402.474 462.246C402.147 462.177 401.817 462.111 401.487 462.047C335.577 449.352 276.584 467.744 253.19 487.681L200.707 526.132C194.36 502.696 208.437 480.144 220.235 462.047C239.154 440.686 262.955 429.7 265.396 424.817C208.274 360.367 180.568 279.56 173.854 247.212C157.987 150.78 183.619 146.508 200.707 104.395C217.794 62.283 184.026 45.3975 166.531 40.9217C169.786 34.8185 175.685 25.6627 204.978 25.6627C204.978 9.79389 210.96 1.0059 259.293 0.029389Z" fill="white"/>
<path d="M621.942 102.75C621.942 134.413 618.101 187.208 613.425 204.409C584.367 140.281 524.247 165.331 488.175 174.894V264.574C549.297 257.515 597.894 246.493 602.403 271.543C606.912 296.593 597.894 326.653 589.377 357.715C556.311 292.585 530.259 329.659 497.193 329.659C498.696 345.858 498.195 404.654 488.175 494.033C478.155 583.411 439.41 600.412 433.064 607.259C449.096 388.822 419.036 188.254 402.002 115.275C467.967 98.4081 621.942 71.0866 621.942 102.75Z" fill="white"/>
<path d="M73.8916 275.606C79.9646 269.533 88.5067 267.753 93.9902 271.418L129.734 295.311C135.65 291.771 141.803 288.587 148.166 285.791C153.15 301.177 159.994 319.237 168.91 338.568C131.367 355.98 105.329 394.003 105.329 438.108C105.329 487.671 138.211 529.552 183.35 543.135L184.313 546.693L189.907 544.887C197.966 546.773 206.366 547.774 215 547.774C252.485 547.774 285.577 528.967 305.356 500.275C309.426 499.04 313.865 497.883 318.666 496.863C334.306 493.542 352.458 491.968 371.892 493.38C368.188 503.891 363.457 513.916 357.821 523.338L381.814 559.229C385.48 564.712 383.7 573.255 377.627 579.327L356.108 600.609C350.035 606.682 341.493 608.462 336.01 604.797L300.264 580.904C286.668 589.039 271.815 595.288 256.064 599.288L247.311 643.352C246.025 649.823 238.725 654.608 230.135 654.608L199.865 654.442C191.275 654.442 183.975 649.658 182.689 643.187L173.97 599.297C158.336 595.33 143.585 589.148 130.071 581.106L92.7041 606.083C87.2206 609.748 78.6776 607.969 72.6045 601.897L51.3203 580.379C45.2476 574.306 43.4685 565.764 47.1338 560.281L72.0127 523.063C63.9126 509.46 57.6997 494.604 53.7324 478.855L11.2559 470.417C4.78399 469.131 -1.12642e-06 461.831 0 453.241L0.165039 422.974C0.16504 414.384 4.94993 407.085 11.4219 405.799L53.7236 397.395C57.7174 381.526 63.9914 366.564 72.1777 352.877L48.1855 316.987C44.5202 311.504 46.3002 302.962 52.373 296.889L73.8916 275.606Z" fill="white"/>
<path d="M650.4 256.7C650.4 249.1 652.9 242.7 657.9 237.5C663.1 232.3 669.9 229.7 678.3 229.7C686.7 229.7 693.4 232.3 698.4 237.5C703.6 242.7 706.2 249.1 706.2 256.7C706.2 264.3 703.6 270.7 698.4 275.9C693.4 281.1 686.7 283.7 678.3 283.7C669.9 283.7 663.1 281.1 657.9 275.9C652.9 270.7 650.4 264.3 650.4 256.7ZM703.8 442.7C701.6 443.1 698.3 443.6 693.9 444.2C689.7 445 685.4 445.4 681 445.4C676.6 445.4 672.6 445.1 669 444.5C665.6 443.9 662.7 442.7 660.3 440.9C657.9 439.1 656 436.7 654.6 433.7C653.4 430.5 652.8 426.4 652.8 421.4V299.3C655 298.9 658.2 298.4 662.4 297.8C666.8 297 671.2 296.6 675.6 296.6C680 296.6 683.9 296.9 687.3 297.5C690.9 298.1 693.9 299.3 696.3 301.1C698.7 302.9 700.5 305.4 701.7 308.6C703.1 311.6 703.8 315.6 703.8 320.6V442.7ZM828.668 350.6C828.668 344.4 826.868 339.9 823.268 337.1C819.868 334.1 815.168 332.6 809.168 332.6C805.168 332.6 801.168 333.1 797.168 334.1C793.368 335.1 790.068 336.6 787.268 338.6V442.7C785.268 443.3 782.068 443.9 777.668 444.5C773.468 445.1 769.068 445.4 764.468 445.4C760.068 445.4 756.068 445.1 752.468 444.5C749.068 443.9 746.168 442.7 743.768 440.9C741.368 439.1 739.468 436.7 738.068 433.7C736.868 430.5 736.268 426.4 736.268 421.4V331.4C736.268 326 737.368 321.6 739.568 318.2C741.968 314.8 745.168 311.7 749.168 308.9C755.968 304.1 764.468 300.2 774.668 297.2C785.068 294.2 796.568 292.7 809.168 292.7C831.768 292.7 849.168 297.7 861.368 307.7C873.568 317.5 879.668 331.2 879.668 348.8V442.7C877.668 443.3 874.468 443.9 870.068 444.5C865.868 445.1 861.468 445.4 856.868 445.4C852.468 445.4 848.468 445.1 844.868 444.5C841.468 443.9 838.568 442.7 836.168 440.9C833.768 439.1 831.868 436.7 830.468 433.7C829.268 430.5 828.668 426.4 828.668 421.4V350.6ZM993.37 332.9C988.37 332.9 983.57 333.7 978.97 335.3C974.57 336.9 970.67 339.3 967.27 342.5C964.07 345.5 961.47 349.3 959.47 353.9C957.47 358.5 956.47 363.9 956.47 370.1C956.47 382.5 959.97 391.8 966.97 398C974.17 404.2 982.87 407.3 993.07 407.3C999.07 407.3 1004.27 406.6 1008.67 405.2C1013.07 403.8 1016.97 402.3 1020.37 400.7C1024.37 403.5 1027.37 406.6 1029.37 410C1031.37 413.2 1032.37 417.1 1032.37 421.7C1032.37 429.9 1028.47 436.3 1020.67 440.9C1012.87 445.3 1002.07 447.5 988.27 447.5C975.67 447.5 964.27 445.7 954.07 442.1C943.87 438.3 935.07 433.1 927.67 426.5C920.47 419.7 914.87 411.6 910.87 402.2C906.87 392.8 904.87 382.4 904.87 371C904.87 357.8 906.97 346.3 911.17 336.5C915.57 326.5 921.47 318.3 928.87 311.9C936.27 305.5 944.77 300.7 954.37 297.5C964.17 294.3 974.47 292.7 985.27 292.7C999.67 292.7 1010.77 295.3 1018.57 300.5C1026.37 305.7 1030.27 312.4 1030.27 320.6C1030.27 324.4 1029.37 328 1027.57 331.4C1025.77 334.6 1023.67 337.4 1021.27 339.8C1017.87 338.2 1013.77 336.7 1008.97 335.3C1004.17 333.7 998.97 332.9 993.37 332.9ZM1201.95 442.7C1199.95 443.3 1196.75 443.9 1192.35 444.5C1188.15 445.1 1183.75 445.4 1179.15 445.4C1174.75 445.4 1170.75 445.1 1167.15 444.5C1163.75 443.9 1160.85 442.7 1158.45 440.9C1156.05 439.1 1154.15 436.7 1152.75 433.7C1151.55 430.5 1150.95 426.4 1150.95 421.4V354.8C1150.95 346.6 1148.85 340.9 1144.65 337.7C1140.65 334.3 1135.65 332.6 1129.65 332.6C1125.65 332.6 1121.85 333.1 1118.25 334.1C1114.65 335.1 1111.75 336.3 1109.55 337.7V442.7C1107.55 443.3 1104.35 443.9 1099.95 444.5C1095.75 445.1 1091.35 445.4 1086.75 445.4C1082.35 445.4 1078.35 445.1 1074.75 444.5C1071.35 443.9 1068.45 442.7 1066.05 440.9C1063.65 439.1 1061.75 436.7 1060.35 433.7C1059.15 430.5 1058.55 426.4 1058.55 421.4V247.4C1060.75 247 1063.95 246.5 1068.15 245.9C1072.55 245.1 1076.95 244.7 1081.35 244.7C1085.75 244.7 1089.65 245 1093.05 245.6C1096.65 246.2 1099.65 247.4 1102.05 249.2C1104.45 251 1106.25 253.5 1107.45 256.7C1108.85 259.7 1109.55 263.7 1109.55 268.7V298.1C1112.15 297.1 1116.05 296 1121.25 294.8C1126.65 293.4 1132.55 292.7 1138.95 292.7C1158.75 292.7 1174.15 297.7 1185.15 307.7C1196.35 317.5 1201.95 332.2 1201.95 351.8V442.7Z" fill="white"/>
</svg>
